<svg width="75" height="75" viewBox="0 0 75 75" fill="none" xmlns="http://www.w3.org/2000/svg">
<path fill-rule="evenodd" clip-rule="evenodd" d="M34.4143 17.0775C31.2 17.0454 27.9857 17.2489 24.7179 17.6936C23.558 17.8593 22.4553 18.3022 21.5031 18.9849C20.5509 19.6675 19.7774 20.5697 19.2482 21.615L16.9714 26.0614L13.4196 26.3507H13.4143L12.7018 26.4096C6.95893 26.8918 2.14286 31.1668 1.26964 36.8346C0.621429 41.0239 0 45.5025 0 50.1204C0 54.7436 0.621429 59.2222 1.26964 63.4061C2.14286 69.0847 6.95893 73.3596 12.7018 73.8364L13.4143 73.8954H13.4625C19.9232 74.4311 26.7375 74.9989 33.7339 74.9989C40.7304 74.9989 47.5446 74.4364 54.0054 73.9007L54.0589 73.8954L54.7714 73.8364C60.5089 73.3596 65.325 69.0846 66.2036 63.4114C66.8464 59.2221 67.4679 54.7436 67.4679 50.1257C67.4679 46.9275 67.1732 43.8043 66.7714 40.7882C64.5827 42.8675 61.6796 44.0276 58.6607 44.0293H56.6357C54.5655 44.0265 52.5322 43.4808 50.7386 42.4468C48.9451 41.4128 47.4541 39.9266 46.4143 38.1364C44.3405 38.1318 42.3044 37.5826 40.5096 36.5437C38.7148 35.5048 37.2244 34.0127 36.1875 32.2168L35.1857 30.4864C34.1489 28.6901 33.6023 26.653 33.6004 24.5789C33.5985 22.5049 34.1415 20.4668 35.175 18.6686C34.8781 18.16 34.6237 17.6279 34.4143 17.0775Z" fill="#8FBFFA"/>
<path fill-rule="evenodd" clip-rule="evenodd" d="M33.7342 37.0661C30.0484 37.0661 26.9842 38.1054 24.8306 40.2536C22.6877 42.3964 21.6484 45.4661 21.6484 49.1518C21.6484 52.8375 22.6877 55.9071 24.8306 58.0554C26.9788 60.1982 30.0484 61.2429 33.7342 61.2429C37.4199 61.2429 40.4895 60.2036 42.6377 58.0554C44.7806 55.9125 45.8252 52.8429 45.8252 49.1518C45.8252 45.4661 44.7859 42.4018 42.6377 40.2536C40.4895 38.1054 37.4199 37.0661 33.7342 37.0661ZM61.5538 0.894645C60.6981 0.310819 59.6861 -0.00100607 58.6502 2.43858e-06H56.6413C55.6088 0.00207249 54.6008 0.314878 53.7485 0.897712C52.8963 1.48055 52.2392 2.30642 51.8627 3.26786L51.1234 5.14286L49.1842 6.25715L47.202 5.95715C46.1797 5.80235 45.1345 5.9593 44.2027 6.4075C43.271 6.85569 42.496 7.57433 41.9788 8.46965L40.9824 10.2C40.4656 11.0943 40.2301 12.1235 40.3066 13.1536C40.383 14.1836 40.7678 15.1668 41.4109 15.975L42.8306 17.7429C42.9017 18.3569 42.9017 18.9771 42.8306 19.5911L41.4163 21.3643C40.7743 22.172 40.3902 23.1542 40.3138 24.1831C40.2373 25.2121 40.4722 26.2402 40.9877 27.1339L41.9895 28.8643C42.5056 29.7596 43.2794 30.4787 44.2102 30.9279C45.1409 31.377 46.1853 31.5353 47.2074 31.3821L49.5752 31.0179C50.0848 31.2122 50.5617 31.4831 50.9895 31.8214L51.8681 34.0714C52.2454 35.0319 52.9028 35.8566 53.755 36.4384C54.6072 37.0203 55.6148 37.3323 56.6467 37.3339H58.6449C59.6765 37.3308 60.6833 37.0175 61.5345 36.4347C62.3857 35.852 63.042 35.0267 63.4181 34.0661L64.2967 31.8268C64.7244 31.4885 65.2014 31.2175 65.7109 31.0232L68.0841 31.3768C69.1062 31.5299 70.1506 31.3716 71.0814 30.9225C72.0121 30.4734 72.7859 29.7543 73.302 28.8589L74.2984 27.1339C74.814 26.2402 75.0488 25.2121 74.9724 24.1831C74.896 23.1542 74.5118 22.172 73.8699 21.3643L72.4609 19.5911C72.3903 18.9788 72.3903 18.3605 72.4609 17.7482L73.8752 15.975C74.5192 15.1673 74.9049 14.1844 74.9823 13.1544C75.0597 12.1243 74.8251 11.0948 74.3092 10.2L73.3127 8.46965C72.7963 7.57335 72.0216 6.85361 71.0898 6.40443C70.158 5.95524 69.1124 5.7975 68.0895 5.95179L66.1074 6.25715L64.1627 5.1375L63.4288 3.2625C63.052 2.30192 62.395 1.47689 61.5431 0.894645M61.5913 14.7589C60.6538 13.8214 59.2984 13.35 57.6377 13.35C55.977 13.35 54.6217 13.8214 53.6895 14.7589C52.7574 15.6964 52.2806 17.0464 52.2806 18.7071C52.2806 20.3679 52.752 21.7232 53.6895 22.6607C54.6217 23.5982 55.977 24.0643 57.6377 24.0643C59.2984 24.0643 60.6538 23.5982 61.5913 22.6607C62.5288 21.7232 62.9949 20.3732 62.9949 18.7071C62.9949 17.0411 62.5288 15.6964 61.5913 14.7589Z" fill="#2859C5"/>
</svg>
