<svg width="25" height="25" viewBox="0 0 25 25" fill="none" xmlns="http://www.w3.org/2000/svg">
<path fill-rule="evenodd" clip-rule="evenodd" d="M12.5 24.5C19.1276 24.5 24.5 19.1276 24.5 12.5C24.5 5.8724 19.1276 0.5 12.5 0.5C5.8724 0.5 0.5 5.8724 0.5 12.5C0.5 19.1276 5.8724 24.5 12.5 24.5ZM18.9452 8.702C19.0013 8.64417 19.0452 8.57562 19.0743 8.50044C19.1034 8.42527 19.117 8.345 19.1144 8.26445C19.1117 8.18389 19.0929 8.1047 19.059 8.03158C19.025 7.95847 18.9767 7.89294 18.9169 7.8389C18.8571 7.78487 18.7871 7.74343 18.7109 7.71708C18.6347 7.69072 18.554 7.67998 18.4736 7.68549C18.3932 7.69101 18.3147 7.71267 18.2429 7.74918C18.171 7.78569 18.1073 7.83631 18.0554 7.898L10.868 15.8402L6.914 12.0656C6.79895 11.9556 6.64493 11.8959 6.48582 11.8995C6.32672 11.9031 6.17556 11.9697 6.0656 12.0848C5.95564 12.1999 5.89589 12.3539 5.89949 12.513C5.90309 12.6721 5.96975 12.8232 6.0848 12.9332L10.4852 17.1332L10.931 17.5592L11.3444 17.102L18.9452 8.702Z" fill="#00B408"/>
</svg>
