<svg width="75" height="75" viewBox="0 0 75 75" fill="none" xmlns="http://www.w3.org/2000/svg">
<path d="M50.1726 4.88933C49.6045 4.63696 48.9593 4.62063 48.3791 4.84391C47.799 5.0672 47.3312 5.51182 47.0789 6.07996C46.8265 6.6481 46.8101 7.29323 47.0334 7.87342C47.2567 8.45361 47.7013 8.92134 48.2695 9.17371C48.307 9.19246 48.7992 9.42215 49.596 9.8909C54.3849 12.7371 58.3948 16.7244 61.2679 21.4971C66.0492 29.5081 65.7023 38.0065 65.6367 39.6096L65.6273 39.844C65.6267 40.4656 65.873 41.062 66.3121 41.502C66.7512 41.942 67.3471 42.1895 67.9687 42.1901C68.5903 42.1907 69.1867 41.9444 69.6267 41.5053C70.0666 41.0662 70.3142 40.4703 70.3148 39.8487V39.8675L70.3195 39.7456C70.4193 37.5019 70.3173 35.2538 70.0148 33.0284C69.4992 29.1471 68.257 24.0565 65.2992 19.0971C59.4398 9.28621 50.7164 5.1284 50.1726 4.89402M50.5945 16.8706C50.3417 16.6833 50.0539 16.5488 49.748 16.4752C49.4422 16.4015 49.1247 16.3902 48.8144 16.4418C48.5041 16.4935 48.2074 16.6071 47.9419 16.7758C47.6764 16.9446 47.4476 17.165 47.2692 17.4241C47.0907 17.6831 46.9662 17.9754 46.9031 18.2836C46.84 18.5918 46.8396 18.9095 46.9019 19.2179C46.9642 19.5262 47.0879 19.8188 47.2657 20.0784C47.4434 20.3379 47.6716 20.5589 47.9367 20.7284C50.1238 22.1875 51.9258 24.1536 53.1893 26.4593C54.4527 28.765 55.1401 31.342 55.1929 33.9706V33.9893C55.1929 34.6109 55.4398 35.2071 55.8794 35.6466C56.3189 36.0862 56.9151 36.3331 57.5367 36.3331C58.1583 36.3331 58.7544 36.0862 59.1939 35.6466C59.6335 35.2071 59.8804 34.6109 59.8804 33.9893V33.694C59.8804 33.519 59.871 33.294 59.8523 33.019C59.6457 29.9717 58.7941 27.0031 57.3539 24.3096C56.2324 22.2428 54.7732 20.378 53.0367 18.7925C52.2772 18.0854 51.4603 17.4425 50.5945 16.8706Z" fill="url(#paint2_linear_3345_20438)"/>
<defs>
<linearGradient id="paint2_linear_3345_20438" x1="52.4601" y1="9.67058" x2="67.146" y2="45.1175" gradientUnits="userSpaceOnUse">
<stop offset="0.125" stop-color="#9C6CFE"/>
<stop offset="1" stop-color="#5B2AB5"/>
</linearGradient>
</defs>
</svg>
