<svg width="62" height="80" viewBox="0 0 50 67" fill="none" xmlns="http://www.w3.org/2000/svg">
<path d="M40.2188 56.9375C40.2188 59.4239 39.231 61.8085 37.4729 63.5666C35.7147 65.3248 33.3302 66.3125 30.8438 66.3125C28.3573 66.3125 25.9728 65.3248 24.2146 63.5666C22.4565 61.8085 21.4688 59.4239 21.4688 56.9375C21.4688 54.4511 22.4565 52.0665 24.2146 50.3084C25.9728 48.5502 28.3573 47.5625 30.8438 47.5625C33.3302 47.5625 35.7147 48.5502 37.4729 50.3084C39.231 52.0665 40.2188 54.4511 40.2188 56.9375Z" fill="url(#paint0_linear_3345_20439)"/>
<path d="M2.89871 46.1833C0.507284 41.8831 -0.0979861 36.8153 1.21346 32.0729C2.52491 27.3305 5.64797 23.2936 9.90897 20.8331C14.17 18.3726 19.2274 17.6856 23.9904 18.9203C28.7533 20.1551 32.8401 23.2126 35.369 27.4333L39.2128 34.0896L48.1471 40.5911C48.4626 40.8208 48.7157 41.1257 48.8835 41.4781C49.0513 41.8304 49.1284 42.219 49.1079 42.6088C49.0875 42.9985 48.97 43.3769 48.7662 43.7097C48.5624 44.0425 48.2787 44.3192 47.9409 44.5146L36.0815 51.363L36.0956 51.3724L23.2612 58.7833V58.7646L11.4018 65.6083C11.0638 65.8033 10.6825 65.9108 10.2924 65.921C9.90235 65.9313 9.51588 65.844 9.16809 65.6671C8.8203 65.4902 8.52218 65.2292 8.30078 64.9079C8.07939 64.5866 7.94172 64.2151 7.90027 63.8271L6.74246 52.8442L2.89871 46.1833Z" fill="url(#paint1_linear_3345_20439)"/>
<defs>
<linearGradient id="paint0_linear_3345_20439" x1="30.8437" y1="54.2984" x2="36.3375" y2="66.0172" gradientUnits="userSpaceOnUse">
<stop stop-color="#EB4824"/>
<stop offset="1" stop-color="#FFCD0F" stop-opacity="0.988"/>
</linearGradient>
<linearGradient id="paint1_linear_3345_20439" x1="47.2143" y1="52.9427" x2="5.6409" y2="25.4177" gradientUnits="userSpaceOnUse">
<stop stop-color="#FF6F47"/>
<stop offset="1" stop-color="#FFCD0F"/>
</linearGradient>
<linearGradient id="paint2_linear_3345_20439" x1="43.4601" y1="5.67058" x2="58.146" y2="41.1175" gradientUnits="userSpaceOnUse">
<stop offset="0.125" stop-color="#9C6CFE"/>
<stop offset="1" stop-color="#5B2AB5"/>
</linearGradient>
</defs>
</svg>