<svg width="54" height="66" viewBox="0 0 54 66" fill="none" xmlns="http://www.w3.org/2000/svg">
<path fill-rule="evenodd" clip-rule="evenodd" d="M19.5422 12.625L0.742188 9.31249L1.28594 6.23124C1.32176 6.02909 1.39708 5.83598 1.50758 5.66295C1.61807 5.48992 1.76158 5.34036 1.92991 5.22282C2.09824 5.10528 2.28808 5.02207 2.48858 4.97793C2.68908 4.9338 2.89632 4.92962 3.09844 4.96561L46.5328 12.625H46.8078H46.5359L52.3328 13.6469C52.5352 13.6823 52.7287 13.7574 52.9021 13.8677C53.0755 13.9781 53.2254 14.1215 53.3432 14.2899C53.4611 14.4583 53.5446 14.6482 53.5889 14.8489C53.6332 15.0496 53.6375 15.257 53.6016 15.4594L53.0578 18.5344L46.5266 17.3844L44.0266 59.8656C43.9334 61.4558 43.2365 62.9504 42.0784 64.0441C40.9203 65.1377 39.3882 65.7479 37.7953 65.75H15.2047C13.6101 65.7503 12.0758 65.1412 10.9156 64.0473C9.7555 62.9534 9.05734 61.4574 8.96406 59.8656L6.46719 17.3125H46.1234L19.5422 12.625ZM17.1234 25.125L18.6859 53.25H23.3734L22.1234 25.125H17.1234ZM31.1859 25.125L29.6234 53.25H34.3109L35.8734 25.125H31.1859ZM22.9172 0.528114L35.2297 2.69686C35.4318 2.73269 35.625 2.808 35.798 2.9185C35.971 3.029 36.1206 3.17251 36.2381 3.34084C36.3556 3.50916 36.4389 3.699 36.483 3.8995C36.5271 4.10001 36.5313 4.30724 36.4953 4.50936L35.9516 7.58436L20.5641 4.87186L21.1078 1.79374C21.1436 1.59159 21.219 1.39848 21.3295 1.22545C21.4399 1.05242 21.5835 0.902858 21.7518 0.78532C21.9201 0.667781 22.11 0.584568 22.3105 0.540435C22.511 0.496302 22.7151 0.492115 22.9172 0.528114Z" fill="#00B408"/>
</svg>
