<svg width="25" height="25" viewBox="0 0 25 25" fill="none" xmlns="http://www.w3.org/2000/svg">
<path fill-rule="evenodd" clip-rule="evenodd" d="M12.5 24.5C19.1276 24.5 24.5 19.1276 24.5 12.5C24.5 5.8724 19.1276 0.5 12.5 0.5C5.8724 0.5 0.5 5.8724 0.5 12.5C0.5 19.1276 5.8724 24.5 12.5 24.5ZM17.3792 7.6208C17.5477 7.78955 17.6424 8.0183 17.6424 8.2568C17.6424 8.4953 17.5477 8.72405 17.3792 8.8928L13.772 12.5L17.378 16.106C17.537 16.2766 17.6235 16.5023 17.6194 16.7354C17.6153 16.9686 17.5208 17.1911 17.3559 17.3559C17.1911 17.5208 16.9686 17.6153 16.7354 17.6194C16.5023 17.6235 16.2766 17.537 16.106 17.378L12.5 13.7744L8.894 17.3804C8.81161 17.4688 8.71225 17.5397 8.60185 17.5889C8.49145 17.6381 8.37227 17.6646 8.25143 17.6667C8.13058 17.6688 8.01055 17.6466 7.89848 17.6013C7.78642 17.5561 7.68462 17.4887 7.59915 17.4032C7.51369 17.3178 7.44632 17.216 7.40105 17.1039C7.35579 16.9919 7.33356 16.8718 7.33569 16.751C7.33782 16.6301 7.36427 16.511 7.41346 16.4006C7.46265 16.2902 7.53358 16.1908 7.622 16.1084L11.2256 12.5L7.6208 8.894C7.53238 8.81161 7.46145 8.71225 7.41226 8.60185C7.36307 8.49145 7.33662 8.37227 7.33449 8.25143C7.33236 8.13058 7.35459 8.01055 7.39985 7.89848C7.44512 7.78642 7.51249 7.68462 7.59795 7.59915C7.68342 7.51369 7.78522 7.44632 7.89728 7.40105C8.00935 7.35579 8.12938 7.33356 8.25023 7.33569C8.37107 7.33782 8.49025 7.36427 8.60065 7.41346C8.71105 7.46265 8.81041 7.53358 8.8928 7.622L12.5 11.2256L16.106 7.6196C16.2748 7.45106 16.5035 7.35639 16.742 7.35639C16.9805 7.35639 17.2093 7.45106 17.378 7.6196" fill="#C23718"/>
</svg>
